<?xml version="1.0" encoding="UTF-8" standalone="no"?>
<!DOCTYPE svg PUBLIC "-//W3C//DTD SVG 1.1//EN" "http://www.w3.org/Graphics/SVG/1.1/DTD/svg11.dtd">
<svg version="1.1" xmlns="http://www.w3.org/2000/svg" xmlns:xlink="http://www.w3.org/1999/xlink" preserveAspectRatio="xMidYMid meet" viewBox="2.301351502110286 0.9739130434782521 71.21697184608706 55.556521739130446" width="66.22" height="50.56"><defs><path d="M30.57 53.53L50.92 15.09L70.52 53.53L30.57 53.53ZM48.66 32.43L50.17 34.69L52.43 31.67L56.95 31.67L50.92 20.37L41.88 36.95L48.66 32.43Z" id="abEal4xta"></path><mask id="maskd3mjqD4aQW" x="26.57" y="11.09" width="47.95" height="46.44" maskUnits="userSpaceOnUse"><rect x="26.57" y="11.09" width="47.95" height="46.44" fill="white"></rect><use xlink:href="#abEal4xta" opacity="1" fill="black"></use></mask><path d="M4.3 53.53L31.07 2.97L56.84 53.53L4.3 53.53ZM28.09 25.77L30.08 28.75L33.05 24.78L39 24.78L31.07 9.91L19.17 31.72L28.09 25.77Z" id="c57YClUmRw"></path><mask id="maskcoMwKo0jw" x="0.3" y="-1.03" width="60.54" height="58.56" maskUnits="userSpaceOnUse"><rect x="0.3" y="-1.03" width="60.54" height="58.56" fill="white"></rect><use xlink:href="#c57YClUmRw" opacity="1" fill="black"></use></mask><clipPath id="clipa2dY9tv8xT"><use xlink:href="#c57YClUmRw" opacity="1"></use></clipPath></defs><g><g><use xlink:href="#abEal4xta" opacity="1" fill="#ffffff" fill-opacity="1"></use><g mask="url(#maskd3mjqD4aQW)"><use xlink:href="#abEal4xta" opacity="1" fill-opacity="0" stroke="#222222" stroke-width="4" stroke-opacity="1"></use></g></g><g><use xlink:href="#c57YClUmRw" opacity="1" fill="#ffffff" fill-opacity="1"></use><g mask="url(#maskcoMwKo0jw)"><use xlink:href="#c57YClUmRw" opacity="1" fill-opacity="0" stroke="#222222" stroke-width="4" stroke-opacity="1"></use></g><g clip-path="url(#clipa2dY9tv8xT)"><use xlink:href="#c57YClUmRw" opacity="1" fill-opacity="0" stroke="#222222" stroke-width="0" stroke-opacity="1"></use></g></g></g></svg>